# xmcd CD database file
#
# Track frame offsets:
#	150
#	19657
#	30276
#	45736
#	61045
#	77082
#	103963
#	122762
#	142727
#	161508
#	177408
#	193787
#	219702
#
# Disc length: 3084 seconds
#
# Revision: 0
# Processed by: cddbd v1.5.2PL0 Copyright (c) Steve Scherf et al.
# Submitted via: CDex 1.70beta2
#
DISCID=aa0c0a0d
DTITLE=Various Artist - Nite Sky Volume 502 Christmas
DYEAR=2005
DGENRE=Country
TTITLE0=Tammy (Bibb) Camenzind/Breath Of Life
TTITLE1=Andrew Dean/Away In A Manger (featuring Madalin Dean)
TTITLE2=Victoria Boland/The Magic Of Christmas
TTITLE3=Ron Thompson/A Hillbilly Christmas
TTITLE4=Dawn Byus/Such Little Feet
TTITLE5=Linda Hodge/O Holy Night
TTITLE6=Tommy The U.K. Cowboy/I Understand Just How You Feel
TTITLE7=Phyllis A. Travis/Christmas Lullaby
TTITLE8=Karri Danner/Ding Dong Merrily On High
TTITLE9=Andrew Dean/I'll Be Home For Christmas
TTITLE10=Ron Thompson/Will There Be Christmas In Heaven
TTITLE11=Jack Hodge/Silent Night Medley
TTITLE12=Andrew Dean/Go Tell It On The Mountain
EXTD=YEAR: 2005
EXTT0=
EXTT1=
EXTT2=
EXTT3=
EXTT4=
EXTT5=
EXTT6=
EXTT7=
EXTT8=
EXTT9=
EXTT10=
EXTT11=
EXTT12=
PLAYORDER=
